<svg width="500" height="500" viewBox="0 0 500 500" fill="none" xmlns="http://www.w3.org/2000/svg">
    <path d="M243.003 123C244.669 123 246.342 122.914 248.002 122.755C249.662 122.589 251.316 122.344 252.951 122.019C254.593 121.693 256.21 121.289 257.809 120.804C259.408 120.319 260.976 119.755 262.52 119.117C264.063 118.473 265.57 117.761 267.047 116.976C268.517 116.185 269.95 115.332 271.335 114.4C272.725 113.474 274.067 112.48 275.359 111.419C276.652 110.357 277.883 109.241 279.065 108.057C280.248 106.879 281.369 105.64 282.428 104.352C283.488 103.058 284.481 101.72 285.412 100.328C286.337 98.9415 287.194 97.5123 287.985 96.0339C288.769 94.5617 289.479 93.0527 290.122 91.513C290.759 89.9672 291.323 88.3968 291.807 86.7958C292.291 85.2009 292.695 83.5814 293.02 81.9436C293.351 80.3058 293.596 78.6556 293.755 76.9933C293.92 75.3309 294 73.6624 294 71.9939C294 70.3254 293.92 68.6568 293.755 66.9945C293.59 65.3321 293.345 63.682 293.02 62.0441C292.695 60.4063 292.291 58.7869 291.801 57.1858C291.317 55.5909 290.753 54.0206 290.116 52.4747C289.479 50.935 288.762 49.426 287.978 47.9538C287.188 46.4755 286.331 45.0462 285.399 43.6599C284.474 42.2674 283.482 40.9301 282.422 39.6419C281.363 38.3476 280.242 37.1146 279.059 35.9307C277.877 34.7529 276.64 33.6304 275.347 32.5692C274.055 31.5141 272.719 30.5203 271.329 29.5879C269.938 28.6617 268.511 27.8029 267.034 27.0177C265.558 26.2325 264.051 25.5148 262.507 24.8768C260.964 24.2389 259.396 23.6745 257.797 23.1961C256.198 22.7115 254.581 22.3005 252.939 21.9753C251.303 21.6502 249.65 21.4049 247.989 21.2454C246.329 21.0797 244.663 21 242.991 21C241.318 21 239.652 21.0797 237.992 21.2454C236.326 21.411 234.678 21.6564 233.043 21.9815C231.401 22.3066 229.784 22.7115 228.185 23.2022C226.586 23.6868 225.018 24.245 223.474 24.8891C221.93 25.5271 220.424 26.2386 218.947 27.0299C217.477 27.8151 216.044 28.6739 214.659 29.6002C213.269 30.5326 211.927 31.5263 210.635 32.5876C209.348 33.6427 208.111 34.7652 206.928 35.9491C205.746 37.1269 204.631 38.366 203.572 39.6542C202.512 40.9485 201.513 42.2858 200.588 43.6783C199.663 45.0646 198.806 46.5 198.015 47.9722C197.231 49.4444 196.515 50.9535 195.878 52.4993C195.241 54.039 194.677 55.6093 194.193 57.2104C193.709 58.8114 193.305 60.4247 192.98 62.0625C192.655 63.7065 192.41 65.3566 192.245 67.019C192.08 68.6814 192 70.3438 192 72.0184C192.006 73.6869 192.086 75.3493 192.251 77.0117C192.417 78.674 192.668 80.3242 192.992 81.962C193.323 83.5937 193.727 85.2131 194.211 86.808C194.701 88.4091 195.265 89.9794 195.902 91.5191C196.545 93.0588 197.256 94.5678 198.046 96.0401C198.83 97.5123 199.688 98.9415 200.619 100.328C201.544 101.714 202.542 103.058 203.602 104.346C204.662 105.634 205.777 106.873 206.959 108.051C208.141 109.229 209.379 110.351 210.665 111.412C211.958 112.468 213.299 113.461 214.684 114.388C216.074 115.32 217.502 116.179 218.978 116.964C220.448 117.749 221.955 118.467 223.499 119.105C225.036 119.743 226.611 120.307 228.203 120.792C229.802 121.276 231.419 121.681 233.055 122.012C234.697 122.338 236.344 122.583 238.004 122.748C239.665 122.914 241.331 122.994 243.003 123ZM243.003 39.5131C244.069 39.5131 245.129 39.5683 246.188 39.6726C247.248 39.7769 248.302 39.9302 249.343 40.1388C250.391 40.3412 251.42 40.5989 252.437 40.9117C253.46 41.2184 254.458 41.5742 255.444 41.9852C256.425 42.3901 257.386 42.844 258.324 43.347C259.267 43.85 260.18 44.396 261.062 44.9848C261.95 45.5737 262.802 46.2056 263.628 46.8865C264.449 47.5612 265.24 48.2728 265.993 49.0273C266.747 49.7757 267.457 50.567 268.131 51.389C268.811 52.211 269.442 53.0636 270.036 53.947C270.624 54.8303 271.175 55.7443 271.678 56.6828C272.18 57.6214 272.633 58.5844 273.044 59.5659C273.448 60.5474 273.81 61.5534 274.116 62.5717C274.428 63.59 274.685 64.6205 274.894 65.6633C275.102 66.7062 275.255 67.7612 275.365 68.8163C275.47 69.8776 275.519 70.9388 275.519 72.0061C275.519 73.0674 275.47 74.1286 275.365 75.1898C275.261 76.251 275.108 77.3 274.9 78.3489C274.692 79.3917 274.434 80.4223 274.122 81.4406C273.816 82.4589 273.454 83.4587 273.05 84.4464C272.646 85.4278 272.186 86.3909 271.69 87.3294C271.188 88.268 270.636 89.182 270.048 90.0653C269.454 90.9486 268.823 91.8013 268.149 92.6294C267.475 93.4514 266.759 94.2366 266.005 94.9911C265.252 95.7456 264.468 96.4572 263.647 97.1319C262.82 97.8067 261.968 98.4447 261.08 99.0336C260.198 99.6286 259.285 100.175 258.348 100.678C257.411 101.174 256.449 101.634 255.463 102.039C254.483 102.45 253.478 102.806 252.461 103.113C251.444 103.426 250.409 103.683 249.368 103.892C248.32 104.1 247.273 104.254 246.213 104.358C245.153 104.462 244.087 104.518 243.028 104.518C241.962 104.518 240.896 104.462 239.836 104.358C238.776 104.254 237.729 104.1 236.681 103.892C235.64 103.683 234.605 103.426 233.588 103.119C232.571 102.812 231.566 102.45 230.586 102.045C229.6 101.634 228.638 101.181 227.701 100.684C226.764 100.181 225.851 99.6347 224.963 99.0397C224.081 98.4508 223.223 97.819 222.402 97.1442C221.581 96.4633 220.791 95.7517 220.038 94.9972C219.284 94.2489 218.574 93.4575 217.894 92.6356C217.22 91.8136 216.589 90.9609 215.995 90.0714C215.407 89.1881 214.855 88.2741 214.359 87.3356C213.857 86.397 213.397 85.4401 212.993 84.4525C212.583 83.471 212.227 82.4711 211.915 81.4529C211.609 80.4346 211.351 79.404 211.143 78.3551C210.935 77.3122 210.775 76.2633 210.671 75.2021C210.567 74.1408 210.518 73.0796 210.518 72.0184C210.518 70.951 210.573 69.8898 210.684 68.8347C210.788 67.7796 210.947 66.7246 211.161 65.6817C211.37 64.6451 211.627 63.6145 211.939 62.5962C212.252 61.5779 212.607 60.5781 213.017 59.5966C213.428 58.6151 213.881 57.6582 214.384 56.7196C214.886 55.7811 215.431 54.8732 216.025 53.9899C216.613 53.1066 217.244 52.2539 217.924 51.4319C218.598 50.6099 219.309 49.8248 220.062 49.0702C220.809 48.3157 221.6 47.6042 222.421 46.9294C223.241 46.2546 224.093 45.6228 224.975 45.0278C225.863 44.4389 226.77 43.893 227.707 43.3899C228.644 42.8869 229.606 42.433 230.586 42.022C231.566 41.611 232.565 41.2552 233.582 40.9424C234.599 40.6295 235.628 40.3719 236.669 40.1572C237.71 39.9486 238.764 39.7892 239.818 39.6849C240.877 39.5745 241.937 39.5192 243.003 39.5131Z"
          fill="#4F46E5"/>
    <path d="M448.631 418.576L327.757 296.664L293.403 205.033H415.592C416.654 205.033 417.715 204.983 418.777 204.878C419.832 204.774 420.881 204.619 421.925 204.409C422.968 204.206 423.998 203.946 425.017 203.638C426.035 203.329 427.035 202.971 428.016 202.564C428.998 202.157 429.961 201.706 430.899 201.206C431.837 200.706 432.744 200.157 433.633 199.57C434.516 198.978 435.367 198.348 436.188 197.676C437.015 197.003 437.799 196.287 438.552 195.534C439.305 194.787 440.015 193.997 440.694 193.176C441.367 192.355 441.996 191.503 442.589 190.621C443.181 189.738 443.724 188.831 444.231 187.893C444.731 186.955 445.181 185.998 445.588 185.017C445.996 184.035 446.354 183.035 446.662 182.023C446.971 181.005 447.23 179.974 447.44 178.937C447.644 177.894 447.804 176.845 447.903 175.789C448.008 174.728 448.063 173.672 448.063 172.611C448.063 171.549 448.008 170.487 447.903 169.432C447.804 168.377 447.644 167.327 447.44 166.284C447.23 165.241 446.971 164.21 446.662 163.198C446.354 162.18 445.996 161.18 445.588 160.199C445.181 159.217 444.731 158.26 444.231 157.322C443.724 156.39 443.181 155.477 442.589 154.594C441.996 153.712 441.367 152.86 440.694 152.039C440.015 151.218 439.305 150.434 438.552 149.681C437.799 148.928 437.015 148.218 436.188 147.546C435.367 146.873 434.516 146.237 433.633 145.651C432.744 145.058 431.837 144.515 430.899 144.015C429.961 143.509 428.998 143.059 428.016 142.651C427.035 142.244 426.035 141.886 425.017 141.577C423.998 141.275 422.968 141.016 421.925 140.806C420.881 140.602 419.832 140.442 418.777 140.343C417.715 140.238 416.654 140.182 415.592 140.182H71.8668C70.8052 140.182 69.7436 140.238 68.682 140.343C67.6265 140.442 66.5711 140.602 65.528 140.806C64.4849 141.016 63.4603 141.275 62.4419 141.577C61.4235 141.886 60.4237 142.244 59.4423 142.651C58.4548 143.059 57.4981 143.509 56.5599 144.015C55.6218 144.515 54.7083 145.058 53.8257 145.651C52.9431 146.237 52.0913 146.873 51.2642 147.546C50.4434 148.218 49.6595 148.928 48.9065 149.681C48.1535 150.434 47.4375 151.218 46.7648 152.039C46.092 152.86 45.4563 153.712 44.8699 154.594C44.2774 155.477 43.7281 156.39 43.2281 157.322C42.7282 158.26 42.2715 159.217 41.8641 160.199C41.4567 161.18 41.1049 162.18 40.7902 163.198C40.4816 164.21 40.2285 165.241 40.0186 166.284C39.8088 167.327 39.6545 168.377 39.5496 169.432C39.4446 170.487 39.3953 171.549 39.3953 172.611C39.3953 173.672 39.4446 174.728 39.5496 175.789C39.6545 176.845 39.8088 177.894 40.0186 178.937C40.2285 179.974 40.4816 181.005 40.7902 182.023C41.1049 183.035 41.4567 184.035 41.8641 185.017C42.2715 185.998 42.7282 186.955 43.2281 187.893C43.7281 188.831 44.2774 189.738 44.8699 190.621C45.4563 191.503 46.092 192.355 46.7648 193.176C47.4375 193.997 48.1535 194.787 48.9065 195.534C49.6595 196.287 50.4434 197.003 51.2642 197.676C52.0913 198.348 52.9431 198.978 53.8257 199.57C54.7083 200.157 55.6218 200.706 56.5599 201.206C57.4981 201.706 58.4548 202.157 59.4423 202.564C60.4237 202.971 61.4235 203.329 62.4419 203.638C63.4603 203.946 64.4849 204.206 65.528 204.409C66.5711 204.619 67.6265 204.774 68.682 204.878C69.7436 204.983 70.8052 205.033 71.8668 205.033H154.116C155.709 205.033 157.295 205.113 158.881 205.267C160.468 205.422 162.041 205.656 163.603 205.965C165.164 206.28 166.708 206.662 168.226 207.125C169.75 207.588 171.25 208.125 172.719 208.73C174.194 209.341 175.632 210.02 177.033 210.773C178.441 211.52 179.805 212.334 181.126 213.223C182.453 214.106 183.73 215.05 184.958 216.062C186.187 217.068 187.366 218.136 188.495 219.259C189.618 220.389 190.686 221.562 191.698 222.796C192.704 224.024 193.655 225.302 194.538 226.623C195.42 227.944 196.241 229.308 196.988 230.709C197.741 232.116 198.42 233.548 199.025 235.017C199.636 236.486 200.173 237.986 200.629 239.504C201.092 241.029 201.481 242.572 201.79 244.127C202.098 245.688 202.333 247.262 202.487 248.842C202.642 250.429 202.716 252.015 202.716 253.601H221.355C221.355 251.404 221.244 249.207 221.034 247.022C220.818 244.831 220.491 242.658 220.065 240.498C219.633 238.344 219.096 236.214 218.461 234.11C217.819 232.005 217.078 229.931 216.239 227.9C215.393 225.87 214.455 223.882 213.418 221.944C212.381 220 211.246 218.118 210.023 216.291C208.801 214.458 207.493 212.699 206.092 210.995C204.697 209.292 203.222 207.668 201.66 206.113C200.105 204.558 198.475 203.076 196.772 201.681C195.075 200.286 193.303 198.978 191.476 197.756C189.643 196.534 187.754 195.404 185.816 194.367C183.872 193.33 181.885 192.386 179.848 191.547C177.811 190.701 175.743 189.96 173.633 189.325C171.528 188.683 169.392 188.146 167.232 187.72C165.072 187.288 162.899 186.967 160.708 186.751C158.517 186.529 156.32 186.424 154.116 186.424H71.8668C70.9595 186.424 70.0583 186.331 69.1696 186.158C68.2746 185.979 67.4105 185.714 66.5711 185.368C65.7317 185.023 64.9355 184.597 64.1825 184.091C63.4233 183.591 62.7259 183.017 62.084 182.375C61.4421 181.733 60.8681 181.036 60.3619 180.283C59.862 179.53 59.4361 178.733 59.0843 177.894C58.7387 177.055 58.4794 176.19 58.3005 175.302C58.1215 174.413 58.0351 173.518 58.0351 172.611C58.0351 171.703 58.1215 170.802 58.3005 169.913C58.4794 169.025 58.7387 168.161 59.0843 167.321C59.4361 166.488 59.862 165.692 60.3619 164.933C60.8681 164.18 61.4421 163.482 62.084 162.84C62.7259 162.198 63.4233 161.63 64.1825 161.124C64.9355 160.618 65.7317 160.192 66.5711 159.847C67.4105 159.501 68.2746 159.236 69.1696 159.063C70.0583 158.884 70.9595 158.797 71.8668 158.797H415.592C416.499 158.797 417.4 158.884 418.289 159.063C419.178 159.236 420.048 159.501 420.881 159.847C421.721 160.192 422.523 160.618 423.276 161.124C424.029 161.63 424.727 162.198 425.375 162.84C426.017 163.482 426.584 164.18 427.091 164.933C427.597 165.692 428.023 166.488 428.368 167.321C428.72 168.161 428.979 169.025 429.158 169.913C429.337 170.802 429.424 171.703 429.424 172.611C429.424 173.518 429.337 174.413 429.158 175.302C428.979 176.19 428.72 177.055 428.368 177.894C428.023 178.733 427.597 179.53 427.091 180.283C426.584 181.036 426.017 181.733 425.375 182.375C424.727 183.017 424.029 183.591 423.276 184.091C422.523 184.597 421.721 185.023 420.881 185.368C420.048 185.714 419.178 185.979 418.289 186.158C417.4 186.331 416.499 186.424 415.592 186.424H266.498L310.968 305.07L435.46 431.667C436.194 432.407 436.855 433.21 437.447 434.074C438.034 434.938 438.54 435.851 438.966 436.808C439.392 437.765 439.725 438.752 439.966 439.765C440.213 440.783 440.361 441.814 440.422 442.857C440.478 443.9 440.441 444.943 440.305 445.98C440.175 447.017 439.947 448.035 439.632 449.029C439.311 450.029 438.91 450.985 438.416 451.911C437.923 452.831 437.355 453.707 436.701 454.522C435.972 455.429 435.164 456.256 434.269 456.997C433.374 457.744 432.411 458.392 431.386 458.941C430.362 459.491 429.294 459.935 428.177 460.268C427.066 460.602 425.924 460.818 424.764 460.923C423.61 461.027 422.449 461.015 421.295 460.892C420.135 460.762 419.005 460.515 417.894 460.163C416.789 459.805 415.728 459.336 414.716 458.768C413.697 458.194 412.753 457.528 411.876 456.769L278.343 340.758H140.402C139.137 340.764 137.884 340.887 136.643 341.134C135.403 341.387 134.193 341.751 133.026 342.239C131.854 342.72 130.743 343.313 129.693 344.016C128.638 344.72 127.663 345.522 126.768 346.411C125.873 347.306 125.077 348.281 124.373 349.331C123.663 350.38 123.071 351.491 122.583 352.657C122.102 353.83 121.731 355.034 121.484 356.274C121.238 357.509 121.108 358.762 121.108 360.027V441.178C121.108 442.351 120.997 443.511 120.768 444.659C120.54 445.807 120.201 446.924 119.75 448.004C119.306 449.091 118.75 450.115 118.102 451.09C117.448 452.066 116.707 452.967 115.88 453.8C115.053 454.627 114.152 455.368 113.171 456.016C112.195 456.67 111.171 457.219 110.085 457.664C108.998 458.114 107.881 458.454 106.733 458.682C105.585 458.91 104.419 459.028 103.246 459.028C102.073 459.028 100.913 458.91 99.7586 458.682C98.6106 458.454 97.4934 458.114 96.4071 457.664C95.327 457.219 94.2962 456.67 93.321 456.016C92.3459 455.368 91.4447 454.627 90.6115 453.8C89.7844 452.967 89.0438 452.066 88.3895 451.09C87.7415 450.115 87.1921 449.091 86.7416 448.004C86.291 446.924 85.9577 445.807 85.7293 444.659C85.501 443.511 85.3837 442.351 85.3837 441.178V354.398C85.3899 352.756 85.4701 351.114 85.6306 349.473C85.7972 347.837 86.038 346.214 86.3651 344.597C86.686 342.986 87.0872 341.387 87.5625 339.813C88.0439 338.239 88.5994 336.696 89.2289 335.172C89.8647 333.654 90.5683 332.166 91.346 330.716C92.1237 329.265 92.9692 327.858 93.8827 326.488C94.8024 325.124 95.7837 323.803 96.8268 322.531C97.8699 321.254 98.9809 320.038 100.141 318.877C101.308 317.711 102.53 316.606 103.801 315.563C105.073 314.52 106.4 313.539 107.77 312.625C109.14 311.712 110.547 310.866 112.004 310.088C113.454 309.311 114.942 308.607 116.466 307.977C117.985 307.348 119.534 306.792 121.114 306.317C122.688 305.836 124.287 305.435 125.904 305.114C127.521 304.793 129.144 304.546 130.786 304.385C132.428 304.225 134.069 304.138 135.717 304.138H213.659V285.53H135.717C133.458 285.53 131.206 285.641 128.959 285.869C126.712 286.091 124.484 286.424 122.268 286.863C120.052 287.307 117.868 287.856 115.707 288.511C113.547 289.171 111.424 289.93 109.338 290.794C107.252 291.658 105.215 292.621 103.221 293.683C101.234 294.751 99.2957 295.905 97.4193 297.158C95.543 298.411 93.7346 299.756 91.9879 301.188C90.2412 302.62 88.5685 304.132 86.9761 305.725C85.3775 307.317 83.8654 308.99 82.4273 310.73C80.9953 312.471 79.656 314.279 78.3969 316.156C77.1439 318.032 75.9836 319.964 74.9158 321.951C73.8542 323.939 72.8852 325.975 72.0211 328.055C71.157 330.142 70.3916 332.259 69.7374 334.419C69.077 336.573 68.5277 338.758 68.0894 340.967C67.645 343.183 67.3117 345.405 67.0896 347.652C66.8612 349.899 66.7501 352.145 66.7501 354.398V441.227C66.7501 442.425 66.8056 443.616 66.9229 444.801C67.0402 445.992 67.213 447.171 67.4475 448.338C67.6821 449.51 67.9722 450.664 68.3178 451.812C68.6634 452.954 69.0708 454.071 69.5275 455.176C69.9843 456.281 70.4966 457.355 71.0582 458.41C71.6199 459.466 72.2371 460.484 72.8975 461.478C73.5641 462.472 74.2739 463.428 75.0331 464.354C75.7922 465.274 76.5946 466.156 77.4402 467.002C78.2858 467.848 79.1684 468.644 80.0942 469.403C81.0138 470.162 81.9767 470.872 82.9704 471.532C83.9641 472.199 84.9887 472.81 86.0441 473.372C87.0934 473.933 88.1735 474.446 89.2783 474.902C90.3831 475.359 91.5064 475.76 92.6545 476.106C93.7963 476.452 94.9567 476.742 96.1294 476.976C97.2959 477.211 98.4809 477.384 99.6722 477.501C100.857 477.618 102.055 477.68 103.246 477.68C104.443 477.68 105.634 477.618 106.826 477.501C108.017 477.384 109.196 477.211 110.368 476.976C111.541 476.742 112.695 476.452 113.843 476.106C114.985 475.76 116.109 475.359 117.213 474.902C118.318 474.446 119.398 473.933 120.454 473.372C121.509 472.81 122.534 472.199 123.527 471.532C124.521 470.872 125.478 470.162 126.404 469.403C127.323 468.644 128.212 467.848 129.058 467.002C129.903 466.156 130.706 465.274 131.459 464.354C132.218 463.428 132.934 462.472 133.594 461.478C134.261 460.484 134.872 459.466 135.433 458.41C136.001 457.355 136.514 456.281 136.97 455.176C137.427 454.071 137.828 452.954 138.174 451.812C138.519 450.664 138.81 449.51 139.044 448.338C139.279 447.171 139.451 445.992 139.569 444.801C139.686 443.616 139.748 442.425 139.748 441.227L140.402 359.373H271.306L399.631 470.804C402.877 473.656 406.525 475.841 410.568 477.359C414.611 478.877 418.789 479.636 423.11 479.63C424.221 479.63 425.344 479.63 426.467 479.47C428.152 479.322 429.819 479.05 431.467 478.661C433.115 478.272 434.726 477.766 436.299 477.155C437.879 476.538 439.404 475.81 440.873 474.983C442.348 474.149 443.755 473.217 445.101 472.187C446.44 471.156 447.699 470.033 448.884 468.823C450.069 467.613 451.156 466.329 452.162 464.965C453.162 463.601 454.057 462.175 454.859 460.682C455.655 459.194 456.346 457.651 456.92 456.065C457.501 454.479 457.97 452.856 458.315 451.201C458.667 449.547 458.902 447.881 459.013 446.196C459.124 444.505 459.118 442.82 458.994 441.135C458.871 439.45 458.624 437.783 458.266 436.129C457.902 434.475 457.427 432.858 456.834 431.278C456.242 429.692 455.544 428.161 454.736 426.673C453.927 425.186 453.014 423.766 452.001 422.415C450.995 421.057 449.89 419.779 448.699 418.576H448.631Z"
          fill="#4F46E5"/>
</svg>
