<svg xmlns="http://www.w3.org/2000/svg" xmlns:xlink="http://www.w3.org/1999/xlink" width="500" zoomAndPan="magnify" viewBox="0 0 375 374.999991" height="500" preserveAspectRatio="xMidYMid meet" version="1.0"><defs><clipPath id="c974b6999a"><path d="M 54.1875 118 L 320 118 L 320 334 L 54.1875 334 Z M 54.1875 118 " clip-rule="nonzero"/></clipPath></defs><rect x="-37.5" width="450" fill="#ffffff" y="-37.499999" height="449.999989" fill-opacity="1"/><rect x="-37.5" width="450" fill="#ffffff" y="-37.499999" height="449.999989" fill-opacity="1"/><rect x="-37.5" width="450" fill="#ffffff" y="-37.499999" height="449.999989" fill-opacity="1"/><path fill="#4f46e5" d="M 182.523438 108.300781 C 183.585938 108.300781 184.652344 108.246094 185.710938 108.144531 C 186.769531 108.039062 187.824219 107.882812 188.867188 107.675781 C 189.914062 107.46875 190.945312 107.210938 191.964844 106.902344 C 192.984375 106.59375 193.984375 106.234375 194.96875 105.828125 C 195.953125 105.417969 196.914062 104.964844 197.855469 104.464844 C 198.792969 103.960938 199.707031 103.417969 200.589844 102.824219 C 201.476562 102.234375 202.332031 101.601562 203.15625 100.925781 C 203.980469 100.25 204.765625 99.539062 205.519531 98.785156 C 206.273438 98.035156 206.988281 97.246094 207.664062 96.425781 C 208.339844 95.601562 208.972656 94.75 209.566406 93.863281 C 210.15625 92.980469 210.703125 92.070312 211.207031 91.128906 C 211.707031 90.191406 212.160156 89.230469 212.570312 88.25 C 212.976562 87.265625 213.335938 86.265625 213.644531 85.246094 C 213.953125 84.230469 214.210938 83.199219 214.417969 82.15625 C 214.628906 81.113281 214.785156 80.0625 214.886719 79.003906 C 214.992188 77.945312 215.042969 76.882812 215.042969 75.820312 C 215.042969 74.757812 214.992188 73.695312 214.886719 72.636719 C 214.78125 71.578125 214.625 70.527344 214.417969 69.484375 C 214.210938 68.441406 213.953125 67.410156 213.640625 66.390625 C 213.332031 65.375 212.972656 64.375 212.566406 63.390625 C 212.160156 62.410156 211.703125 61.449219 211.203125 60.511719 C 210.699219 59.570312 210.152344 58.660156 209.558594 57.777344 C 208.96875 56.890625 208.335938 56.039062 207.660156 55.21875 C 206.984375 54.394531 206.269531 53.609375 205.515625 52.855469 C 204.761719 52.105469 203.972656 51.390625 203.148438 50.714844 C 202.324219 50.042969 201.472656 49.410156 200.585938 48.816406 C 199.699219 48.226562 198.789062 47.679688 197.847656 47.179688 C 196.90625 46.679688 195.945312 46.222656 194.960938 45.816406 C 193.976562 45.410156 192.976562 45.050781 191.957031 44.746094 C 190.9375 44.4375 189.90625 44.175781 188.859375 43.96875 C 187.816406 43.761719 186.761719 43.605469 185.703125 43.503906 C 184.644531 43.398438 183.582031 43.347656 182.515625 43.347656 C 181.449219 43.347656 180.386719 43.398438 179.328125 43.503906 C 178.265625 43.609375 177.214844 43.765625 176.171875 43.972656 C 175.125 44.179688 174.09375 44.4375 173.074219 44.75 C 172.054688 45.058594 171.054688 45.414062 170.070312 45.824219 C 169.085938 46.230469 168.125 46.683594 167.183594 47.1875 C 166.246094 47.6875 165.332031 48.234375 164.449219 48.824219 C 163.5625 49.417969 162.707031 50.050781 161.882812 50.726562 C 161.0625 51.398438 160.273438 52.113281 159.519531 52.867188 C 158.765625 53.617188 158.054688 54.40625 157.378906 55.226562 C 156.703125 56.050781 156.066406 56.902344 155.476562 57.789062 C 154.886719 58.671875 154.339844 59.585938 153.835938 60.523438 C 153.335938 61.460938 152.878906 62.421875 152.472656 63.40625 C 152.066406 64.386719 151.707031 65.386719 151.398438 66.40625 C 151.089844 67.425781 150.832031 68.453125 150.625 69.496094 C 150.417969 70.542969 150.261719 71.59375 150.15625 72.652344 C 150.050781 73.710938 150 74.769531 150 75.835938 C 150.003906 76.898438 150.054688 77.957031 150.160156 79.015625 C 150.265625 80.074219 150.425781 81.125 150.632812 82.167969 C 150.84375 83.207031 151.101562 84.238281 151.410156 85.253906 C 151.722656 86.273438 152.082031 87.273438 152.488281 88.253906 C 152.898438 89.234375 153.351562 90.195312 153.855469 91.132812 C 154.355469 92.070312 154.902344 92.980469 155.496094 93.863281 C 156.085938 94.746094 156.722656 95.601562 157.398438 96.421875 C 158.074219 97.242188 158.785156 98.03125 159.539062 98.78125 C 160.292969 99.53125 161.082031 100.246094 161.902344 100.921875 C 162.726562 101.59375 163.582031 102.226562 164.464844 102.816406 C 165.351562 103.410156 166.261719 103.957031 167.203125 104.457031 C 168.140625 104.957031 169.101562 105.414062 170.085938 105.820312 C 171.066406 106.226562 172.070312 106.585938 173.085938 106.894531 C 174.105469 107.203125 175.136719 107.460938 176.179688 107.671875 C 177.226562 107.878906 178.277344 108.035156 179.335938 108.140625 C 180.394531 108.246094 181.457031 108.296875 182.523438 108.300781 Z M 182.523438 55.136719 C 183.203125 55.136719 183.878906 55.171875 184.554688 55.238281 C 185.230469 55.304688 185.902344 55.402344 186.566406 55.535156 C 187.234375 55.664062 187.890625 55.828125 188.539062 56.027344 C 189.191406 56.222656 189.828125 56.449219 190.457031 56.710938 C 191.082031 56.96875 191.695312 57.257812 192.292969 57.578125 C 192.894531 57.898438 193.476562 58.246094 194.039062 58.621094 C 194.605469 58.996094 195.148438 59.398438 195.675781 59.832031 C 196.199219 60.261719 196.703125 60.714844 197.183594 61.195312 C 197.664062 61.671875 198.117188 62.175781 198.546875 62.699219 C 198.980469 63.222656 199.382812 63.765625 199.761719 64.328125 C 200.136719 64.890625 200.488281 65.472656 200.808594 66.070312 C 201.128906 66.667969 201.417969 67.28125 201.679688 67.90625 C 201.9375 68.53125 202.167969 69.171875 202.363281 69.820312 C 202.5625 70.46875 202.726562 71.125 202.859375 71.789062 C 202.992188 72.453125 203.089844 73.125 203.160156 73.796875 C 203.226562 74.472656 203.257812 75.148438 203.257812 75.828125 C 203.257812 76.503906 203.226562 77.179688 203.160156 77.855469 C 203.09375 78.53125 202.996094 79.199219 202.863281 79.867188 C 202.730469 80.53125 202.566406 81.1875 202.367188 81.835938 C 202.171875 82.484375 201.941406 83.121094 201.683594 83.75 C 201.425781 84.375 201.132812 84.988281 200.816406 85.585938 C 200.496094 86.183594 200.144531 86.765625 199.769531 87.328125 C 199.390625 87.890625 198.988281 88.433594 198.558594 88.960938 C 198.128906 89.484375 197.671875 89.984375 197.191406 90.464844 C 196.710938 90.945312 196.210938 91.398438 195.6875 91.828125 C 195.160156 92.257812 194.617188 92.664062 194.050781 93.039062 C 193.488281 93.417969 192.90625 93.765625 192.308594 94.085938 C 191.710938 94.402344 191.097656 94.695312 190.46875 94.953125 C 189.84375 95.214844 189.203125 95.441406 188.554688 95.636719 C 187.90625 95.835938 187.246094 96 186.582031 96.132812 C 185.914062 96.265625 185.246094 96.363281 184.570312 96.429688 C 183.894531 96.496094 183.214844 96.53125 182.539062 96.53125 C 181.859375 96.53125 181.179688 96.496094 180.503906 96.429688 C 179.828125 96.363281 179.160156 96.265625 178.492188 96.132812 C 177.828125 96 177.167969 95.835938 176.519531 95.640625 C 175.871094 95.445312 175.230469 95.214844 174.605469 94.957031 C 173.976562 94.695312 173.363281 94.40625 172.765625 94.089844 C 172.167969 93.769531 171.585938 93.421875 171.019531 93.042969 C 170.457031 92.667969 169.910156 92.265625 169.386719 91.835938 C 168.863281 91.402344 168.359375 90.949219 167.878906 90.46875 C 167.398438 89.992188 166.945312 89.488281 166.511719 88.964844 C 166.082031 88.441406 165.679688 87.898438 165.300781 87.332031 C 164.925781 86.769531 164.574219 86.1875 164.257812 85.589844 C 163.9375 84.992188 163.644531 84.382812 163.386719 83.753906 C 163.125 83.128906 162.898438 82.492188 162.699219 81.84375 C 162.503906 81.195312 162.339844 80.539062 162.207031 79.871094 C 162.074219 79.207031 161.972656 78.539062 161.90625 77.863281 C 161.839844 77.1875 161.808594 76.511719 161.808594 75.835938 C 161.808594 75.15625 161.84375 74.480469 161.914062 73.808594 C 161.980469 73.136719 162.082031 72.464844 162.21875 71.800781 C 162.351562 71.140625 162.515625 70.484375 162.714844 69.835938 C 162.914062 69.1875 163.140625 68.550781 163.402344 67.925781 C 163.664062 67.300781 163.953125 66.691406 164.273438 66.09375 C 164.59375 65.496094 164.941406 64.917969 165.320312 64.355469 C 165.695312 63.792969 166.097656 63.25 166.53125 62.726562 C 166.960938 62.203125 167.414062 61.703125 167.894531 61.222656 C 168.371094 60.742188 168.875 60.289062 169.398438 59.859375 C 169.921875 59.429688 170.464844 59.027344 171.027344 58.648438 C 171.59375 58.273438 172.171875 57.925781 172.769531 57.605469 C 173.367188 57.285156 173.980469 56.996094 174.605469 56.734375 C 175.230469 56.472656 175.867188 56.246094 176.515625 56.046875 C 177.164062 55.847656 177.820312 55.683594 178.484375 55.546875 C 179.148438 55.414062 179.820312 55.3125 180.492188 55.246094 C 181.167969 55.175781 181.84375 55.140625 182.523438 55.136719 Z M 182.523438 55.136719 " fill-opacity="1" fill-rule="nonzero"/><g clip-path="url(#c974b6999a)"><path fill="#4f46e5" d="M 312.804688 295.1875 L 236.304688 218.03125 L 214.5625 160.039062 L 291.894531 160.039062 C 292.566406 160.039062 293.238281 160.007812 293.910156 159.941406 C 294.578125 159.875 295.242188 159.777344 295.902344 159.644531 C 296.5625 159.515625 297.214844 159.351562 297.859375 159.15625 C 298.503906 158.960938 299.136719 158.734375 299.757812 158.476562 C 300.378906 158.21875 300.988281 157.933594 301.582031 157.617188 C 302.175781 157.300781 302.75 156.953125 303.3125 156.582031 C 303.871094 156.207031 304.410156 155.808594 304.929688 155.382812 C 305.453125 154.957031 305.949219 154.503906 306.425781 154.027344 C 306.902344 153.554688 307.351562 153.054688 307.78125 152.535156 C 308.207031 152.015625 308.605469 151.476562 308.980469 150.917969 C 309.355469 150.359375 309.699219 149.785156 310.019531 149.191406 C 310.335938 148.597656 310.621094 147.992188 310.878906 147.371094 C 311.136719 146.75 311.363281 146.117188 311.558594 145.476562 C 311.753906 144.832031 311.917969 144.179688 312.050781 143.523438 C 312.179688 142.863281 312.28125 142.199219 312.34375 141.53125 C 312.410156 140.859375 312.445312 140.191406 312.445312 139.519531 C 312.445312 138.847656 312.410156 138.175781 312.34375 137.507812 C 312.28125 136.839844 312.179688 136.175781 312.050781 135.515625 C 311.917969 134.855469 311.753906 134.203125 311.558594 133.5625 C 311.363281 132.917969 311.136719 132.285156 310.878906 131.664062 C 310.621094 131.042969 310.335938 130.4375 310.019531 129.84375 C 309.699219 129.253906 309.355469 128.675781 308.980469 128.117188 C 308.605469 127.558594 308.207031 127.019531 307.78125 126.5 C 307.351562 125.980469 306.902344 125.484375 306.425781 125.007812 C 305.949219 124.53125 305.453125 124.082031 304.929688 123.65625 C 304.410156 123.230469 303.871094 122.828125 303.3125 122.457031 C 302.75 122.082031 302.175781 121.738281 301.582031 121.421875 C 300.988281 121.101562 300.378906 120.816406 299.757812 120.558594 C 299.136719 120.300781 298.503906 120.074219 297.859375 119.878906 C 297.214844 119.6875 296.5625 119.523438 295.902344 119.390625 C 295.242188 119.261719 294.578125 119.160156 293.910156 119.097656 C 293.238281 119.03125 292.566406 118.996094 291.894531 118.996094 L 74.355469 118.996094 C 73.683594 118.996094 73.011719 119.03125 72.339844 119.097656 C 71.671875 119.160156 71.003906 119.261719 70.34375 119.390625 C 69.683594 119.523438 69.035156 119.6875 68.390625 119.878906 C 67.746094 120.074219 67.113281 120.300781 66.492188 120.558594 C 65.867188 120.816406 65.261719 121.101562 64.667969 121.421875 C 64.074219 121.738281 63.496094 122.082031 62.9375 122.457031 C 62.378906 122.828125 61.839844 123.230469 61.316406 123.65625 C 60.796875 124.082031 60.300781 124.53125 59.824219 125.007812 C 59.347656 125.484375 58.894531 125.980469 58.46875 126.5 C 58.042969 127.019531 57.640625 127.558594 57.269531 128.117188 C 56.894531 128.675781 56.546875 129.253906 56.230469 129.84375 C 55.914062 130.4375 55.625 131.042969 55.367188 131.664062 C 55.109375 132.285156 54.886719 132.917969 54.6875 133.5625 C 54.492188 134.203125 54.332031 134.855469 54.199219 135.515625 C 54.066406 136.175781 53.96875 136.839844 53.902344 137.507812 C 53.835938 138.175781 53.804688 138.847656 53.804688 139.519531 C 53.804688 140.191406 53.835938 140.859375 53.902344 141.53125 C 53.96875 142.199219 54.066406 142.863281 54.199219 143.523438 C 54.332031 144.179688 54.492188 144.832031 54.6875 145.476562 C 54.886719 146.117188 55.109375 146.75 55.367188 147.371094 C 55.625 147.992188 55.914062 148.597656 56.230469 149.191406 C 56.546875 149.785156 56.894531 150.359375 57.269531 150.917969 C 57.640625 151.476562 58.042969 152.015625 58.46875 152.535156 C 58.894531 153.054688 59.347656 153.554688 59.824219 154.027344 C 60.300781 154.503906 60.796875 154.957031 61.316406 155.382812 C 61.839844 155.808594 62.378906 156.207031 62.9375 156.582031 C 63.496094 156.953125 64.074219 157.300781 64.667969 157.617188 C 65.261719 157.933594 65.867188 158.21875 66.492188 158.476562 C 67.113281 158.734375 67.746094 158.960938 68.390625 159.15625 C 69.035156 159.351562 69.683594 159.515625 70.34375 159.644531 C 71.003906 159.777344 71.671875 159.875 72.339844 159.941406 C 73.011719 160.007812 73.683594 160.039062 74.355469 160.039062 L 126.410156 160.039062 C 127.417969 160.039062 128.421875 160.089844 129.425781 160.1875 C 130.429688 160.285156 131.425781 160.433594 132.414062 160.628906 C 133.402344 160.828125 134.378906 161.070312 135.339844 161.363281 C 136.304688 161.65625 137.253906 161.996094 138.183594 162.378906 C 139.117188 162.765625 140.027344 163.195312 140.914062 163.671875 C 141.804688 164.144531 142.667969 164.660156 143.503906 165.222656 C 144.34375 165.78125 145.152344 166.378906 145.929688 167.019531 C 146.707031 167.65625 147.453125 168.332031 148.167969 169.042969 C 148.878906 169.757812 149.554688 170.5 150.195312 171.28125 C 150.832031 172.058594 151.433594 172.867188 151.992188 173.703125 C 152.550781 174.539062 153.070312 175.402344 153.542969 176.289062 C 154.019531 177.179688 154.449219 178.085938 154.832031 179.015625 C 155.21875 179.945312 155.558594 180.894531 155.847656 181.855469 C 156.140625 182.820312 156.386719 183.796875 156.582031 184.78125 C 156.777344 185.769531 156.925781 186.765625 157.023438 187.765625 C 157.121094 188.769531 157.167969 189.773438 157.167969 190.777344 L 168.964844 190.777344 C 168.964844 189.386719 168.894531 187.996094 168.761719 186.613281 C 168.625 185.226562 168.417969 183.851562 168.148438 182.484375 C 167.875 181.121094 167.535156 179.773438 167.132812 178.441406 C 166.726562 177.109375 166.257812 175.796875 165.726562 174.511719 C 165.191406 173.226562 164.597656 171.96875 163.941406 170.742188 C 163.285156 169.511719 162.566406 168.320312 161.792969 167.164062 C 161.019531 166.003906 160.191406 164.890625 159.304688 163.8125 C 158.421875 162.734375 157.488281 161.707031 156.5 160.722656 C 155.515625 159.738281 154.484375 158.800781 153.40625 157.917969 C 152.332031 157.035156 151.210938 156.207031 150.054688 155.433594 C 148.894531 154.660156 147.699219 153.945312 146.472656 153.289062 C 145.242188 152.632812 143.984375 152.035156 142.695312 151.503906 C 141.40625 150.96875 140.097656 150.5 138.761719 150.097656 C 137.429688 149.691406 136.078125 149.351562 134.710938 149.082031 C 133.34375 148.808594 131.96875 148.605469 130.582031 148.46875 C 129.195312 148.328125 127.804688 148.261719 126.410156 148.261719 L 74.355469 148.261719 C 73.78125 148.261719 73.210938 148.203125 72.648438 148.09375 C 72.082031 147.980469 71.535156 147.8125 71.003906 147.59375 C 70.472656 147.375 69.96875 147.105469 69.492188 146.785156 C 69.011719 146.46875 68.570312 146.105469 68.164062 145.699219 C 67.757812 145.292969 67.394531 144.851562 67.074219 144.375 C 66.757812 143.898438 66.488281 143.394531 66.265625 142.863281 C 66.046875 142.332031 65.882812 141.785156 65.769531 141.222656 C 65.65625 140.660156 65.601562 140.09375 65.601562 139.519531 C 65.601562 138.945312 65.65625 138.375 65.769531 137.8125 C 65.882812 137.25 66.046875 136.703125 66.265625 136.171875 C 66.488281 135.644531 66.757812 135.140625 67.074219 134.660156 C 67.394531 134.183594 67.757812 133.742188 68.164062 133.335938 C 68.570312 132.929688 69.011719 132.570312 69.492188 132.25 C 69.96875 131.929688 70.472656 131.660156 71.003906 131.441406 C 71.535156 131.222656 72.082031 131.054688 72.648438 130.945312 C 73.210938 130.832031 73.78125 130.777344 74.355469 130.777344 L 291.894531 130.777344 C 292.46875 130.777344 293.039062 130.832031 293.601562 130.945312 C 294.164062 131.054688 294.714844 131.222656 295.242188 131.441406 C 295.773438 131.660156 296.28125 131.929688 296.757812 132.25 C 297.234375 132.570312 297.675781 132.929688 298.085938 133.335938 C 298.492188 133.742188 298.851562 134.183594 299.171875 134.660156 C 299.492188 135.140625 299.761719 135.644531 299.980469 136.171875 C 300.203125 136.703125 300.367188 137.25 300.480469 137.8125 C 300.59375 138.375 300.648438 138.945312 300.648438 139.519531 C 300.648438 140.09375 300.59375 140.660156 300.480469 141.222656 C 300.367188 141.785156 300.203125 142.332031 299.980469 142.863281 C 299.761719 143.394531 299.492188 143.898438 299.171875 144.375 C 298.851562 144.851562 298.492188 145.292969 298.085938 145.699219 C 297.675781 146.105469 297.234375 146.46875 296.757812 146.785156 C 296.28125 147.105469 295.773438 147.375 295.242188 147.59375 C 294.714844 147.8125 294.164062 147.980469 293.601562 148.09375 C 293.039062 148.203125 292.46875 148.261719 291.894531 148.261719 L 197.535156 148.261719 L 225.679688 223.351562 L 304.46875 303.472656 C 304.933594 303.941406 305.351562 304.449219 305.726562 304.996094 C 306.097656 305.542969 306.417969 306.121094 306.6875 306.726562 C 306.957031 307.332031 307.167969 307.957031 307.320312 308.597656 C 307.476562 309.242188 307.570312 309.894531 307.609375 310.554688 C 307.644531 311.214844 307.621094 311.875 307.535156 312.53125 C 307.453125 313.1875 307.308594 313.832031 307.109375 314.460938 C 306.90625 315.09375 306.652344 315.699219 306.339844 316.285156 C 306.027344 316.867188 305.667969 317.421875 305.253906 317.9375 C 304.792969 318.511719 304.28125 319.035156 303.714844 319.503906 C 303.148438 319.976562 302.539062 320.386719 301.890625 320.734375 C 301.242188 321.082031 300.566406 321.363281 299.859375 321.574219 C 299.15625 321.785156 298.433594 321.921875 297.699219 321.988281 C 296.96875 322.054688 296.234375 322.046875 295.503906 321.96875 C 294.769531 321.886719 294.054688 321.730469 293.351562 321.507812 C 292.652344 321.28125 291.980469 320.984375 291.339844 320.625 C 290.695312 320.261719 290.097656 319.839844 289.542969 319.359375 L 205.03125 245.9375 L 117.730469 245.9375 C 116.929688 245.941406 116.136719 246.019531 115.351562 246.175781 C 114.566406 246.335938 113.800781 246.566406 113.0625 246.875 C 112.320312 247.179688 111.617188 247.554688 110.953125 248 C 110.285156 248.445312 109.667969 248.953125 109.101562 249.515625 C 108.535156 250.082031 108.03125 250.699219 107.585938 251.363281 C 107.136719 252.027344 106.761719 252.730469 106.453125 253.46875 C 106.148438 254.210938 105.914062 254.972656 105.757812 255.757812 C 105.601562 256.539062 105.519531 257.332031 105.519531 258.132812 L 105.519531 309.492188 C 105.519531 310.234375 105.449219 310.96875 105.304688 311.695312 C 105.160156 312.421875 104.945312 313.128906 104.660156 313.8125 C 104.378906 314.5 104.027344 315.148438 103.617188 315.765625 C 103.203125 316.382812 102.734375 316.953125 102.210938 317.480469 C 101.6875 318.003906 101.117188 318.472656 100.496094 318.882812 C 99.878906 319.296875 99.230469 319.644531 98.542969 319.925781 C 97.855469 320.210938 97.148438 320.425781 96.421875 320.570312 C 95.695312 320.714844 94.957031 320.789062 94.214844 320.789062 C 93.472656 320.789062 92.738281 320.714844 92.007812 320.570312 C 91.28125 320.425781 90.574219 320.210938 89.886719 319.925781 C 89.203125 319.644531 88.550781 319.296875 87.933594 318.882812 C 87.316406 318.472656 86.746094 318.003906 86.21875 317.480469 C 85.695312 316.953125 85.226562 316.382812 84.8125 315.765625 C 84.402344 315.148438 84.054688 314.5 83.769531 313.8125 C 83.484375 313.128906 83.273438 312.421875 83.128906 311.695312 C 82.984375 310.96875 82.910156 310.234375 82.910156 309.492188 L 82.910156 254.570312 C 82.914062 253.53125 82.964844 252.492188 83.066406 251.453125 C 83.171875 250.417969 83.324219 249.390625 83.53125 248.367188 C 83.734375 247.347656 83.988281 246.335938 84.289062 245.339844 C 84.59375 244.34375 84.945312 243.367188 85.34375 242.402344 C 85.746094 241.441406 86.191406 240.5 86.683594 239.582031 C 87.175781 238.664062 87.710938 237.773438 88.289062 236.90625 C 88.871094 236.042969 89.492188 235.207031 90.152344 234.402344 C 90.8125 233.59375 91.515625 232.824219 92.25 232.089844 C 92.988281 231.351562 93.761719 230.652344 94.566406 229.992188 C 95.371094 229.332031 96.210938 228.710938 97.078125 228.132812 C 97.945312 227.554688 98.835938 227.019531 99.757812 226.527344 C 100.675781 226.035156 101.617188 225.589844 102.582031 225.191406 C 103.542969 224.792969 104.523438 224.441406 105.523438 224.140625 C 106.519531 223.835938 107.53125 223.582031 108.554688 223.378906 C 109.578125 223.175781 110.605469 223.019531 111.644531 222.917969 C 112.683594 222.816406 113.722656 222.761719 114.765625 222.761719 L 164.09375 222.761719 L 164.09375 210.984375 L 114.765625 210.984375 C 113.335938 210.984375 111.910156 211.054688 110.488281 211.199219 C 109.066406 211.339844 107.65625 211.550781 106.253906 211.828125 C 104.851562 212.109375 103.46875 212.457031 102.101562 212.871094 C 100.734375 213.289062 99.390625 213.769531 98.070312 214.316406 C 96.75 214.863281 95.460938 215.472656 94.199219 216.144531 C 92.941406 216.820312 91.714844 217.550781 90.527344 218.34375 C 89.339844 219.136719 88.195312 219.988281 87.089844 220.894531 C 85.984375 221.800781 84.925781 222.757812 83.917969 223.765625 C 82.90625 224.773438 81.949219 225.832031 81.039062 226.933594 C 80.132812 228.035156 79.285156 229.179688 78.488281 230.367188 C 77.695312 231.554688 76.960938 232.777344 76.285156 234.035156 C 75.613281 235.292969 75 236.582031 74.453125 237.898438 C 73.90625 239.21875 73.421875 240.558594 73.007812 241.925781 C 72.589844 243.289062 72.242188 244.671875 71.964844 246.070312 C 71.683594 247.472656 71.472656 248.878906 71.332031 250.300781 C 71.1875 251.722656 71.117188 253.144531 71.117188 254.570312 L 71.117188 309.523438 C 71.117188 310.28125 71.152344 311.035156 71.226562 311.785156 C 71.300781 312.539062 71.410156 313.285156 71.558594 314.023438 C 71.707031 314.765625 71.890625 315.496094 72.109375 316.222656 C 72.328125 316.945312 72.585938 317.652344 72.875 318.351562 C 73.164062 319.050781 73.488281 319.730469 73.84375 320.398438 C 74.199219 321.066406 74.589844 321.710938 75.007812 322.339844 C 75.429688 322.96875 75.878906 323.574219 76.359375 324.160156 C 76.839844 324.742188 77.347656 325.300781 77.882812 325.835938 C 78.417969 326.371094 78.976562 326.875 79.5625 327.355469 C 80.144531 327.835938 80.753906 328.285156 81.382812 328.703125 C 82.011719 329.125 82.660156 329.511719 83.328125 329.867188 C 83.992188 330.222656 84.675781 330.546875 85.375 330.835938 C 86.074219 331.125 86.785156 331.378906 87.511719 331.597656 C 88.234375 331.816406 88.96875 332 89.710938 332.148438 C 90.449219 332.296875 91.199219 332.40625 91.953125 332.480469 C 92.703125 332.554688 93.460938 332.59375 94.214844 332.59375 C 94.972656 332.59375 95.726562 332.554688 96.480469 332.480469 C 97.234375 332.40625 97.980469 332.296875 98.722656 332.148438 C 99.464844 332 100.195312 331.816406 100.921875 331.597656 C 101.644531 331.378906 102.355469 331.125 103.054688 330.835938 C 103.753906 330.546875 104.4375 330.222656 105.105469 329.867188 C 105.773438 329.511719 106.421875 329.125 107.050781 328.703125 C 107.679688 328.285156 108.285156 327.835938 108.871094 327.355469 C 109.453125 326.875 110.015625 326.371094 110.550781 325.835938 C 111.085938 325.300781 111.59375 324.742188 112.070312 324.160156 C 112.550781 323.574219 113.003906 322.96875 113.421875 322.339844 C 113.84375 321.710938 114.230469 321.066406 114.585938 320.398438 C 114.945312 319.730469 115.269531 319.050781 115.558594 318.351562 C 115.847656 317.652344 116.101562 316.945312 116.320312 316.222656 C 116.539062 315.496094 116.722656 314.765625 116.871094 314.023438 C 117.019531 313.285156 117.128906 312.539062 117.203125 311.785156 C 117.277344 311.035156 117.316406 310.28125 117.316406 309.523438 L 117.730469 257.71875 L 200.578125 257.71875 L 281.792969 328.242188 C 283.847656 330.046875 286.15625 331.429688 288.714844 332.390625 C 291.273438 333.351562 293.917969 333.832031 296.652344 333.828125 C 297.355469 333.828125 298.066406 333.828125 298.777344 333.726562 C 299.84375 333.632812 300.898438 333.460938 301.941406 333.214844 C 302.984375 332.96875 304.003906 332.648438 305 332.261719 C 306 331.871094 306.964844 331.410156 307.894531 330.886719 C 308.828125 330.359375 309.71875 329.769531 310.570312 329.117188 C 311.417969 328.464844 312.214844 327.753906 312.964844 326.988281 C 313.714844 326.222656 314.402344 325.410156 315.039062 324.546875 C 315.671875 323.683594 316.238281 322.78125 316.746094 321.835938 C 317.25 320.894531 317.6875 319.917969 318.050781 318.914062 C 318.417969 317.910156 318.714844 316.882812 318.933594 315.835938 C 319.15625 314.789062 319.304688 313.734375 319.375 312.667969 C 319.445312 311.597656 319.441406 310.53125 319.363281 309.464844 C 319.285156 308.398438 319.128906 307.34375 318.902344 306.296875 C 318.671875 305.25 318.371094 304.226562 317.996094 303.226562 C 317.621094 302.222656 317.179688 301.253906 316.667969 300.3125 C 316.15625 299.371094 315.578125 298.472656 314.9375 297.617188 C 314.300781 296.757812 313.601562 295.949219 312.847656 295.1875 Z M 312.804688 295.1875 " fill-opacity="1" fill-rule="nonzero"/></g></svg>